<svg width="44" height="44" viewBox="0 0 44 44" fill="none" xmlns="http://www.w3.org/2000/svg">
<rect x="0.5" y="0.5" width="43" height="43" rx="7.5" fill="white"/>
<rect x="0.5" y="0.5" width="43" height="43" rx="7.5" stroke="#D9D9D9"/>
<path fill-rule="evenodd" clip-rule="evenodd" d="M22.0024 14.5C19.1029 14.5 16.7524 16.8505 16.7524 19.75V20.9377C16.7524 21.5199 16.6169 22.094 16.3565 22.6147L15.3957 24.5365C14.7723 25.7832 15.6789 27.25 17.0727 27.25H19.0977C19.2306 27.7645 19.499 28.2392 19.8811 28.6213C20.4437 29.1839 21.2068 29.5 22.0024 29.5C22.7981 29.5 23.5612 29.1839 24.1238 28.6213C24.5059 28.2392 24.7743 27.7645 24.9072 27.25H26.9322C28.326 27.25 29.2326 25.7832 28.6092 24.5365L27.6483 22.6147C27.388 22.094 27.2524 21.5199 27.2524 20.9377V19.75C27.2524 16.8505 24.9019 14.5 22.0024 14.5ZM23.3015 27.25H20.7034C20.7684 27.3626 20.8483 27.4672 20.9418 27.5607C21.2231 27.842 21.6046 28 22.0024 28C22.4003 28 22.7818 27.842 23.0631 27.5607C23.1566 27.4672 23.2365 27.3626 23.3015 27.25ZM26.9322 25.75C27.2109 25.75 27.3922 25.4566 27.2676 25.2073L26.3067 23.2856C25.9422 22.5566 25.7524 21.7527 25.7524 20.9377V19.75C25.7524 17.6789 24.0735 16 22.0024 16C19.9314 16 18.2524 17.6789 18.2524 19.75V20.9377C18.2524 21.7527 18.0627 22.5566 17.6982 23.2856L16.7373 25.2073C16.6127 25.4566 16.794 25.75 17.0727 25.75H26.9322Z" fill="#6C6C6C"/>
</svg>
