<svg width="40" height="40" viewBox="0 0 40 40" fill="none" xmlns="http://www.w3.org/2000/svg">
<path d="M0 8C0 3.58172 3.58172 0 8 0H32C36.4183 0 40 3.58172 40 8V32C40 36.4183 36.4183 40 32 40H8C3.58172 40 0 36.4183 0 32V8Z" fill="#FEF2E6"/>
<path d="M16.6641 23.3333L19.9974 20M19.9974 20L23.3307 23.3333M19.9974 20V27.5M26.6641 23.9524C27.682 23.1117 28.3307 21.8399 28.3307 20.4167C28.3307 17.8854 26.2787 15.8333 23.7474 15.8333C23.5653 15.8333 23.3949 15.7383 23.3025 15.5814C22.2158 13.7374 20.2094 12.5 17.9141 12.5C14.4623 12.5 11.6641 15.2982 11.6641 18.75C11.6641 20.4718 12.3603 22.0309 13.4865 23.1613" stroke="#F77F00" stroke-width="1.66667" stroke-linecap="round" stroke-linejoin="round"/>
</svg>
