<svg width="24" height="24" viewBox="0 0 24 24" fill="none" xmlns="http://www.w3.org/2000/svg">
<path d="M11.5 21C16.7467 21 21 16.7467 21 11.5C21 6.25329 16.7467 2 11.5 2C6.25329 2 2 6.25329 2 11.5C2 16.7467 6.25329 21 11.5 21Z" fill="#F77F00"/>
<path d="M21.3025 21.9986C21.1225 21.9986 20.9425 21.9286 20.8125 21.7986L18.9525 19.9386C18.6825 19.6686 18.6825 19.2286 18.9525 18.9486C19.2225 18.6786 19.6625 18.6786 19.9425 18.9486L21.8025 20.8086C22.0725 21.0786 22.0725 21.5186 21.8025 21.7986C21.6625 21.9286 21.4825 21.9986 21.3025 21.9986Z" fill="#F77F00"/>
</svg>
