<svg width="24" height="24" viewBox="0 0 24 24" fill="none" xmlns="http://www.w3.org/2000/svg">
<path d="M10.0732 2.81984L3.1432 8.36983C2.3632 8.98983 1.86319 10.2999 2.03319 11.2799L3.3632 19.2398C3.6032 20.6598 4.96319 21.8098 6.40319 21.8098H17.6032C19.0332 21.8098 20.4032 20.6498 20.6432 19.2398L21.9732 11.2799C22.1332 10.2999 21.6332 8.98983 20.8632 8.36983L13.9332 2.82985C12.8632 1.96985 11.1332 1.96984 10.0732 2.81984Z" stroke="#4F4F4F" stroke-width="1.5" stroke-linecap="round" stroke-linejoin="round"/>
<path d="M12 15.5C13.3807 15.5 14.5 14.3807 14.5 13C14.5 11.6193 13.3807 10.5 12 10.5C10.6193 10.5 9.5 11.6193 9.5 13C9.5 14.3807 10.6193 15.5 12 15.5Z" stroke="#4F4F4F" stroke-width="1.5" stroke-linecap="round" stroke-linejoin="round"/>
</svg>
