<svg width="24" height="24" viewBox="0 0 24 24" fill="none" xmlns="http://www.w3.org/2000/svg">
<path d="M20.8632 8.36985L13.9332 2.82985C12.8632 1.96985 11.1332 1.96985 10.0732 2.81985L3.14319 8.36985C2.36319 8.98985 1.86319 10.2998 2.03319 11.2798L3.36319 19.2398C3.60319 20.6598 4.96319 21.8098 6.40319 21.8098H17.6032C19.0332 21.8098 20.4032 20.6498 20.6432 19.2398L21.9732 11.2798C22.1332 10.2998 21.6332 8.98985 20.8632 8.36985ZM12.0032 15.4998C10.6232 15.4998 9.50319 14.3798 9.50319 12.9998C9.50319 11.6198 10.6232 10.4998 12.0032 10.4998C13.3832 10.4998 14.5032 11.6198 14.5032 12.9998C14.5032 14.3798 13.3832 15.4998 12.0032 15.4998Z" fill="#F77F00"/>
</svg>
