<svg width="20" height="22" viewBox="0 0 20 22" fill="none" xmlns="http://www.w3.org/2000/svg">
<path d="M9.75024 14.606V10.606M9.75024 6.60604H9.76024M0.750244 6.54749V14.6646C0.750244 15.0072 0.750244 15.1786 0.800729 15.3314C0.845391 15.4665 0.918402 15.5906 1.01488 15.6953C1.12393 15.8136 1.27369 15.8968 1.57322 16.0632L8.97322 20.1744C9.25682 20.3319 9.39862 20.4107 9.54879 20.4416C9.6817 20.4689 9.81878 20.4689 9.95169 20.4416C10.1019 20.4107 10.2437 20.3319 10.5273 20.1744L17.9273 16.0632C18.2268 15.8968 18.3766 15.8136 18.4856 15.6953C18.5821 15.5906 18.6551 15.4665 18.6998 15.3314C18.7502 15.1786 18.7502 15.0072 18.7502 14.6646V6.54749C18.7502 6.20484 18.7502 6.03352 18.6998 5.88072C18.6551 5.74555 18.5821 5.62146 18.4856 5.51678C18.3766 5.39844 18.2268 5.31524 17.9273 5.14883L10.5273 1.03772C10.2437 0.880166 10.1019 0.801387 9.95169 0.770501C9.81878 0.743166 9.6817 0.743166 9.54879 0.770501C9.39862 0.801387 9.25682 0.880166 8.97322 1.03772L1.57322 5.14883C1.27369 5.31524 1.12393 5.39844 1.01488 5.51678C0.918402 5.62146 0.845391 5.74555 0.800729 5.88072C0.750244 6.03352 0.750244 6.20484 0.750244 6.54749Z" stroke="#4F4F4F" stroke-width="1.5" stroke-linecap="round" stroke-linejoin="round"/>
</svg>
