<svg width="24" height="24" viewBox="0 0 24 24" fill="none" xmlns="http://www.w3.org/2000/svg">
<rect width="24" height="24" rx="12" fill="#FEF2E6"/>
<path d="M11.2792 5.31785C11.782 4.89405 12.5937 4.89405 13.0821 5.31785L14.2171 6.28757C14.4326 6.46715 14.842 6.61799 15.1293 6.61799H16.3504C17.1119 6.61799 17.7368 7.24292 17.7368 8.00433V9.22546C17.7368 9.51278 17.8876 9.91503 18.0672 10.1305L19.0369 11.2655C19.4607 11.7683 19.4607 12.58 19.0369 13.0684L18.0672 14.2033C17.8876 14.4188 17.7368 14.8211 17.7368 15.1084V16.3295C17.7368 17.091 17.1119 17.7159 16.3504 17.7159H15.1293C14.842 17.7159 14.4397 17.8667 14.2242 18.0463L13.0893 19.016C12.5865 19.4398 11.7748 19.4398 11.2864 19.016L10.1514 18.0463C9.93594 17.8667 9.5265 17.7159 9.24636 17.7159H7.98932C7.22791 17.7159 6.60298 17.091 6.60298 16.3295V15.1012C6.60298 14.8211 6.45932 14.4117 6.27974 14.2033L5.31002 13.0612C4.8934 12.5656 4.8934 11.7611 5.31002 11.2655L6.27974 10.1233C6.45932 9.90785 6.60298 9.5056 6.60298 9.22546V8.01151C6.60298 7.25011 7.22791 6.62518 7.98932 6.62518H9.23199C9.51932 6.62518 9.92157 6.47433 10.1371 6.29475L11.2792 5.31785Z" stroke="#F77F00" stroke-width="1.07746" stroke-linecap="round" stroke-linejoin="round"/>
<path d="M11.9976 9.2207V12.6901" stroke="#F77F00" stroke-width="1.07746" stroke-linecap="round" stroke-linejoin="round"/>
<path d="M11.9976 14.873H12.004" stroke="#F77F00" stroke-width="1.43662" stroke-linecap="round" stroke-linejoin="round"/>
</svg>
