<svg width="20" height="19" viewBox="0 0 20 19" fill="none" xmlns="http://www.w3.org/2000/svg">
<path d="M13.75 14.3675L18.75 9.3675M18.75 9.3675L13.75 4.3675M18.75 9.3675H6.75M9.75 14.3675C9.75 14.6631 9.75 14.8109 9.73901 14.9389C9.62482 16.2695 8.64486 17.3643 7.33503 17.6248C7.20903 17.6498 7.06202 17.6662 6.76835 17.6988L5.74694 17.8123C4.21248 17.9828 3.44521 18.068 2.83566 17.873C2.02293 17.6129 1.35942 17.019 1.01118 16.24C0.75 15.6557 0.75 14.8837 0.75 13.3398V5.39519C0.75 3.85126 0.75 3.07929 1.01118 2.49501C1.35942 1.71597 2.02293 1.1221 2.83566 0.862021C3.44521 0.666963 4.21246 0.752212 5.74694 0.922711L6.76835 1.0362C7.06212 1.06884 7.20901 1.08516 7.33503 1.11022C8.64486 1.37065 9.62482 2.46553 9.73901 3.7961C9.75 3.92413 9.75 4.07192 9.75 4.3675" stroke="#4F4F4F" stroke-width="1.5" stroke-linecap="round" stroke-linejoin="round"/>
</svg>
