<svg width="18" height="22" viewBox="0 0 18 22" fill="none" xmlns="http://www.w3.org/2000/svg">
<path d="M10.9827 16.7389C11.4115 18.3393 10.4618 19.9843 8.8614 20.4131C7.261 20.842 5.61599 19.8922 5.18717 18.2918M7.48326 4.46497C7.78746 3.91767 7.88767 3.25617 7.71281 2.60357C7.35546 1.26991 5.98461 0.478451 4.65095 0.835806C3.31728 1.19316 2.52583 2.564 2.88318 3.89767C3.05804 4.55027 3.47558 5.07304 4.01268 5.39491M12.8276 8.16941C12.4707 6.83728 11.5178 5.72331 10.1785 5.07258C8.83922 4.42185 7.2233 4.28765 5.68622 4.69951C4.14915 5.11137 2.81682 6.03555 1.98234 7.26873C1.14786 8.50192 0.879584 9.9431 1.23653 11.2752C1.8271 13.4793 1.71243 15.2377 1.33947 16.5738C0.914406 18.0967 0.701873 18.8581 0.759291 19.011C0.824982 19.1859 0.872501 19.2339 1.04673 19.3014C1.19903 19.3604 1.8388 19.189 3.11834 18.8462L14.9834 15.6669C16.2629 15.3241 16.9027 15.1526 17.0051 15.0254C17.1222 14.8798 17.1394 14.8145 17.1088 14.6301C17.0821 14.469 16.5173 13.9159 15.3878 12.8096C14.3967 11.8389 13.4182 10.3735 12.8276 8.16941Z" stroke="#4F4F4F" stroke-width="1.5" stroke-linecap="round" stroke-linejoin="round"/>
</svg>
