<svg width="22" height="18" viewBox="0 0 22 18" fill="none" xmlns="http://www.w3.org/2000/svg">
<path d="M0.75 4.75H20.75M0.75 5.55H20.75M3.82692 11.15H9.98077M3.82692 13.55H6.90385M3.05769 16.75H18.4423C19.0543 16.75 19.6413 16.4971 20.0741 16.0471C20.5069 15.597 20.75 14.9865 20.75 14.35V3.15C20.75 2.51348 20.5069 1.90303 20.0741 1.45294C19.6413 1.00286 19.0543 0.75 18.4423 0.75H3.05769C2.44565 0.75 1.85868 1.00286 1.42591 1.45294C0.993131 1.90303 0.75 2.51348 0.75 3.15V14.35C0.75 14.9865 0.993131 15.597 1.42591 16.0471C1.85868 16.4971 2.44565 16.75 3.05769 16.75Z" stroke="#4F4F4F" stroke-width="1.5" stroke-linecap="round" stroke-linejoin="round"/>
</svg>
