<svg width="18" height="22" viewBox="0 0 18 22" fill="none" xmlns="http://www.w3.org/2000/svg">
<path d="M5.75012 10.182L7.75012 12.182L12.2501 7.682M16.7501 10.682C16.7501 15.5904 11.3962 19.1604 9.44811 20.2969C9.22672 20.426 9.11603 20.4906 8.9598 20.5241C8.83856 20.5501 8.66168 20.5501 8.54044 20.5241C8.38422 20.4906 8.27352 20.426 8.05213 20.2969C6.10408 19.1604 0.750122 15.5904 0.750122 10.682V5.8996C0.750122 5.10009 0.750122 4.70033 0.880882 4.3567C0.996397 4.05314 1.1841 3.78228 1.42778 3.56753C1.70362 3.32444 2.07792 3.18408 2.82653 2.90335L8.18832 0.892674C8.39622 0.814713 8.50017 0.775732 8.60711 0.76028C8.70196 0.746573 8.79829 0.746573 8.89314 0.76028C9.00008 0.775732 9.10402 0.814713 9.31192 0.892673L14.6737 2.90335C15.4223 3.18408 15.7966 3.32444 16.0725 3.56753C16.3161 3.78228 16.5038 4.05314 16.6194 4.3567C16.7501 4.70033 16.7501 5.10009 16.7501 5.8996V10.682Z" stroke="#4F4F4F" stroke-width="1.5" stroke-linecap="round" stroke-linejoin="round"/>
</svg>
